PathFileType	4	(X/Y/Z)	Patient4_TMGait_0pt4_02_right_13.trc.trc
DataRate	CameraRate	NumFrames	NumMarkers	Units	OrigDataRate	OrigDataStartFrame	OrigNumFrames
75.268817204301	75.268817204301	6	33	mm	75.268817204301	124	       141
Frame#	Time	Sacral			L.Shoulder			Chest			R.Shoulder			Neck			R.ASIS			L.ASIS			R.Thigh.Superior			R.Thigh.Lateral			R.Thigh.Inferior			R.Patella			L.Thigh.Superior			L.Thigh.Lateral			L.Thigh.Inferior			L.Patella			L.Shank.Superior			L.Shank.Lateral			L.Shank.Inferior			R.Shank.Superior			R.Shank.Lateral			R.Shank.Inferior			R.Heel			R.Midfoot.Superior			R.Midfoot.Lateral			R.Toe			L.Heel			L.Midfoot.Lateral			L.Midfoot.Superior			L.Toe			L.Elbow			L.Wrist			R.Elbow			R.Wrist			
		X1	Y1	Z1	X2	Y2	Z2	X3	Y3	Z3	X4	Y4	Z4	X5	Y5	Z5	X6	Y6	Z6	X7	Y7	Z7	X8	Y8	Z8	X9	Y9	Z9	X10	Y10	Z10	X11	Y11	Z11	X12	Y12	Z12	X13	Y13	Z13	X14	Y14	Z14	X15	Y15	Z15	X16	Y16	Z16	X17	Y17	Z17	X18	Y18	Z18	X19	Y19	Z19	X20	Y20	Z20	X21	Y21	Z21	X22	Y22	Z22	X23	Y23	Z23	X24	Y24	Z24	X25	Y25	Z25	X26	Y26	Z26	X27	Y27	Z27	X28	Y28	Z28	X29	Y29	Z29	X30	Y30	Z30	X31	Y31	Z31	X32	Y32	Z32	X33	Y33	Z33	

124	18.334142857143	852.068663072911	998.380126796934	435.879374759556	1036.993999615848	1418.834557100495	239.332941370041	1126.695758298410	1364.439062469127	412.839372347282	1027.179939109553	1445.919951606019	574.611505027298	1004.353580857967	1490.184060180234	390.589381394444	1077.930494036669	940.806167325130	562.527692505562	1073.809379117786	962.954839472382	285.923536941262	1147.650280794133	754.941519834158	539.771275907203	1087.149857794569	636.193690187331	608.131287887945	1177.054947354918	593.580106223072	533.491103990088	1198.918526405361	509.321495683320	547.582984436129	1080.604728654918	735.945322380963	312.059043646290	965.798156291965	639.357290580462	246.708491929059	1028.442712380885	547.073211776855	308.499536849303	1014.691737819672	481.275289765876	316.729088247366	983.978080506070	414.239120289256	307.553642939342	884.540889113074	307.529473239128	256.258326556155	930.008928368034	192.044069877917	326.738393716402	1176.817026531959	419.217563898332	560.180714230707	1113.476201194937	313.480247272482	627.829632676631	1170.863869501597	219.398071309387	576.418381688732	1058.608330788102	45.660048040499	559.899195015606	1229.626537718298	102.418970206339	587.949794499023	1145.726162227126	39.480186602449	629.896484029857	1351.496233110959	54.169839615640	609.237298995253	795.849523375546	38.607937144588	369.694828910475	870.310523537042	34.615658413877	289.556479886972	953.433723642887	96.058731898853	317.038457035560	1082.482442439516	43.870939692497	291.114448292128	1092.413037806847	1072.733019755367	122.156021747182	1330.408808002054	967.424343499108	151.617967733962	899.724234291117	1135.008409137883	706.740754080643	913.915892012776	873.945582127787	730.887184876782	
125	18.347428571429	853.999093223878	997.345288386053	438.989050490400	1036.456617820706	1418.754068278419	243.075416034730	1126.875241551858	1364.457033932680	416.269068412220	1027.251326685227	1445.078696761270	578.454351148949	1004.041966293208	1489.708029519541	394.513565809114	1080.015071512851	939.948273222997	564.962072554347	1075.123192692854	962.381133142135	288.808023235984	1148.749932848950	752.827055046501	542.223912567064	1086.072135782039	634.401808077551	608.908201879540	1176.347788234190	591.911967868689	534.645580714218	1196.893970797308	506.650073195444	547.958234102702	1081.476138156580	735.084186083984	313.457441537808	965.374065497623	639.283877054229	248.804502815919	1027.822412189747	546.326030799519	309.799627634391	1013.906758816568	480.208646861240	317.924338308230	982.219062741131	413.642795212964	308.707201687258	881.323723819372	308.203442426391	257.490020024359	925.757143569130	191.796963271684	327.128160880576	1173.583206341595	416.199123025481	560.218439880114	1108.323412328550	311.090906702675	627.408756067358	1163.846262667567	216.144251715648	575.425827109089	1048.277709128174	44.300993487037	559.022179408372	1219.945574763174	99.569344607874	586.370948821067	1135.428112911507	37.963893909858	629.058408299796	1341.683670991431	50.172168240544	607.777667982556	790.516404518114	38.870289045475	369.665982588783	865.033666366835	34.708504625805	289.641298724356	948.289044328815	96.034253955504	317.109971135860	1077.281796462990	43.406600521007	291.100617238715	1091.536310568764	1072.638773391830	125.201427127977	1330.689854012497	970.283470794162	154.092764753394	903.683780602577	1132.010096994107	710.096880538149	923.733047129072	871.000522738562	732.305942112888	
126	18.360714285714	855.821972465985	996.593751743351	442.102161350186	1036.079751617851	1418.902781408277	246.905541677815	1127.177155152468	1364.608365103037	419.780713591201	1027.491384614366	1444.419665540879	582.374330877966	1003.863138416446	1489.448362062701	398.535632811603	1081.954035134234	939.378385822844	567.549858029125	1076.271920972861	961.867158837043	291.928821692872	1149.519421212156	751.005581551587	544.627197740754	1085.185071512113	633.180850605289	610.122606972697	1175.390896032749	590.597546963316	535.835886151056	1194.799047730587	504.517356124246	548.635460741208	1082.611791658002	734.427429211293	315.054594987448	965.441310778827	639.211575209880	251.074690824023	1027.890449413059	545.639919309149	311.233075268067	1013.916021283566	479.075451984622	319.173751366679	981.075375897711	413.000093702109	309.947624178939	878.530503700263	309.019097024123	258.848766344782	921.746332335433	191.597491050603	327.552810741598	1170.632005123831	413.883783214356	560.616484296497	1104.119760145032	309.215695379846	627.529975312611	1157.990174381928	213.694807253935	574.813184323786	1039.826908114034	43.296822179988	558.505362032613	1211.863018460558	97.767118208202	585.205456121690	1127.023497119581	37.064332851269	628.545718708762	1333.594842604018	47.683382444559	606.674202717676	785.201888876667	39.361506710910	369.621193319834	859.789825326253	34.877657829551	289.738020458165	943.247446166612	96.036126057188	317.153707657838	1072.123808561773	42.867497199036	291.068844237751	1090.429126877335	1072.640145645661	128.465356307869	1330.389248371346	972.304617346098	156.437390202921	908.291312470566	1129.038397407313	713.618818117202	934.578422176572	868.284093921248	734.010535474511	
127	18.374000000000	857.467692719930	996.171777849816	445.205743855246	1035.904145170872	1419.302578276596	250.777316945353	1127.587755571401	1364.904226746642	423.350075537751	1027.869039088440	1443.987298542657	586.317350168438	1003.810165899489	1489.431380493983	402.599652751812	1083.678252488430	939.142140826727	570.333798564856	1077.229125840928	961.482397108310	295.297744086474	1150.020491968902	749.624970894659	546.981594140656	1084.618396557103	632.559238782209	611.801669635307	1174.310030791361	589.686932286016	537.106940295184	1192.717668058267	502.949100715783	549.679907404167	1083.982856951300	734.023503395441	316.917314227917	966.060206724187	639.143385388657	253.505550726686	1028.742316681664	545.043280564382	312.803405913388	1014.817650305929	477.886077066051	320.439800921838	980.625238466002	412.323620366418	311.245562794540	876.233449915783	310.017415990572	260.310002312684	918.030114832055	191.493758189128	327.992960145100	1167.987670165952	412.256002119333	561.375090567003	1100.793765846041	307.867043206823	628.174245692722	1153.165542664125	212.006560110805	574.580473026359	1032.994074203498	42.656590199165	558.298924707584	1205.193034158572	96.835984741927	584.475708854780	1120.236194464079	36.666527326706	628.322884289665	1326.990526387430	46.384209148869	605.961226629126	779.927690799118	40.186415421598	369.553561962256	854.590280288355	35.169670042653	289.838016168959	938.347362445375	96.078338841947	317.146947727445	1067.006143586799	42.262225211809	291.018098945922	1089.075191750548	1072.763567177763	131.939812254979	1329.505118284565	973.481577050907	158.684646608811	913.508537420563	1126.177985472453	717.271295533964	946.439964047512	865.930061618082	735.991827410142	
128	18.387285714286	858.887940625182	996.087168973582	448.316143158523	1035.940150828274	1419.946151024544	254.650433734023	1128.081131472222	1365.342185562438	426.953920847888	1028.344246449015	1443.804258381240	590.237433477286	1003.861507382325	1489.658623658373	406.654024136132	1085.151002704737	939.253326048845	573.349522281402	1078.003209034768	961.302272002568	298.907109435212	1150.329767423082	748.757455058563	549.316857390762	1084.404656008516	632.482475444916	613.924665186578	1173.193834324591	589.154532646696	538.512907525626	1190.669314645274	501.891838098081	551.097307022639	1085.573816686879	733.905587856011	319.087880964129	967.291585837544	639.077296576528	256.072961164673	1030.474565653739	544.561206034499	314.501451631997	1016.706818820637	476.652846744378	321.673754945810	980.947766671181	411.628705306503	312.561984742666	874.511635350054	311.244223902181	261.839490579737	914.671120923820	191.543750162939	328.421673682998	1165.593838453304	411.225391512907	562.449266556273	1098.152277130562	306.993009042052	629.255757949594	1149.133071073580	210.965119468322	574.681197297517	1027.395219496768	42.343037714209	558.333187854450	1199.627692034741	96.551975645513	584.146848748695	1114.673610321192	36.632133395869	628.331998471635	1321.517785057542	45.916122127512	605.618259898893	774.728140380765	41.469746331617	369.454596226446	849.451306308200	35.649081208690	289.929675618277	933.634463348311	96.180891725446	317.064421385501	1061.921646374402	41.606384957481	290.949634244531	1087.460910334241	1073.018813989486	135.605094542303	1328.029942222397	973.817583397994	160.869368084642	919.277521660414	1123.501821915967	721.031795977345	959.311899953650	864.069275951670	738.231201339252	
129	18.400571428571	860.057603491645	996.309659603801	451.476461412545	1036.160769605284	1420.796951661794	258.495356938844	1128.621011061600	1365.907857792899	430.571405485723	1028.875051170161	1443.869624067116	594.102709798892	1003.984331580634	1490.107630382254	410.658188043298	1086.369661208786	939.691526889632	576.616690879389	1078.636178688392	961.398313093665	302.726261168673	1150.516192150920	748.384556048922	551.696322063568	1084.448488691781	632.823797385657	616.425853279681	1172.065820633031	588.913262028785	540.111285359740	1188.610890610543	501.238988706689	552.833847412581	1087.387610969674	734.088657175876	321.583147061371	969.199679833559	639.005551753123	258.744928845528	1033.183020208262	544.214400550221	316.310509213165	1019.675401667770	475.391408470144	322.826448135609	982.125205159229	410.933114623928	313.855770211380	873.455052787206	312.748751663705	263.397514661446	911.742996450307	191.813581474622	328.808660903161	1163.333636036612	410.655993612958	563.765341632997	1095.930362231743	306.496190254021	630.647146857698	1145.605389600281	210.415779396349	575.040063418381	1022.610396620230	42.288200565400	558.531157006871	1194.812165864370	96.685666542918	584.142763960580	1109.912249978242	36.824478774534	628.505250545421	1316.790012367692	45.940586461176	605.585268972138	769.652918107545	43.354526723869	369.314345317731	844.396540712920	36.401786583578	289.999898413297	929.161667198695	96.372396231853	316.881598741802	1056.858861381133	40.921587014527	290.867505553511	1085.575919070876	1073.395809177765	139.432456311584	1325.947477479282	973.317079597523	163.024706035400	925.531128060588	1121.066420126559	724.895619485635	973.190469971649	862.825544905515	740.700183558194	
